<svg width="1448" height="346" viewBox="0 0 1448 346" fill="none" xmlns="http://www.w3.org/2000/svg">
<g filter="url(#filter0_d_6_57)">
<path fill-rule="evenodd" clip-rule="evenodd" d="M4 13.52L52 7.51111C100 1.50222 196 -10.5156 292 19.5289C388 49.5733 484 121.68 580 169.751C676 217.822 772 241.858 868 229.84C964 217.822 1060 169.751 1156 163.742C1252 157.733 1348 193.787 1396 211.813L1444 229.84V338H1396C1348 338 1252 338 1156 338C1060 338 964 338 868 338C772 338 676 338 580 338C484 338 388 338 292 338C196 338 100 338 52 338H4V13.52Z" fill="url(#paint0_linear_6_57)" fill-opacity="0.12" shape-rendering="crispEdges"/>
<path fill-rule="evenodd" clip-rule="evenodd" d="M4 13.52L52 7.51111C100 1.50222 196 -10.5156 292 19.5289C388 49.5733 484 121.68 580 169.751C676 217.822 772 241.858 868 229.84C964 217.822 1060 169.751 1156 163.742C1252 157.733 1348 193.787 1396 211.813L1444 229.84V338H1396C1348 338 1252 338 1156 338C1060 338 964 338 868 338C772 338 676 338 580 338C484 338 388 338 292 338C196 338 100 338 52 338H4V13.52Z" stroke="black" shape-rendering="crispEdges"/>
</g>
<defs>
<filter id="filter0_d_6_57" x="0" y="0" width="1448" height="346" filterUnits="userSpaceOnUse" color-interpolation-filters="sRGB">
<feFlood flood-opacity="0" result="BackgroundImageFix"/>
<feColorMatrix in="SourceAlpha" type="matrix" values="0 0 0 0 0 0 0 0 0 0 0 0 0 0 0 0 0 0 127 0" result="hardAlpha"/>
<feOffset dy="4"/>
<feGaussianBlur stdDeviation="2"/>
<feComposite in2="hardAlpha" operator="out"/>
<feColorMatrix type="matrix" values="0 0 0 0 0 0 0 0 0 0 0 0 0 0 0 0 0 0 0.5 0"/>
<feBlend mode="normal" in2="BackgroundImageFix" result="effect1_dropShadow_6_57"/>
<feBlend mode="normal" in="SourceGraphic" in2="effect1_dropShadow_6_57" result="shape"/>
</filter>
<linearGradient id="paint0_linear_6_57" x1="290.5" y1="109" x2="1377" y2="284.5" gradientUnits="userSpaceOnUse">
<stop stop-color="#0099FF"/>
<stop offset="1" stop-color="#0099FF" stop-opacity="0.8"/>
</linearGradient>
</defs>
</svg>
