<svg width="1448" height="346" viewBox="0 0 1448 346" fill="none" xmlns="http://www.w3.org/2000/svg">
<g filter="url(#filter0_d_6_59)">
<path fill-rule="evenodd" clip-rule="evenodd" d="M4 50L52 44.6667C100 39.3333 196 28.6667 292 55.3333C388 82 484 146 580 188.667C676 231.333 772 252.667 868 242C964 231.333 1060 188.667 1156 183.333C1252 178 1348 210 1396 226L1444 242V338H1396C1348 338 1252 338 1156 338C1060 338 964 338 868 338C772 338 676 338 580 338C484 338 388 338 292 338C196 338 100 338 52 338H4V50Z" fill="url(#paint0_linear_6_59)" fill-opacity="0.12" shape-rendering="crispEdges"/>
<path fill-rule="evenodd" clip-rule="evenodd" d="M4 50L52 44.6667C100 39.3333 196 28.6667 292 55.3333C388 82 484 146 580 188.667C676 231.333 772 252.667 868 242C964 231.333 1060 188.667 1156 183.333C1252 178 1348 210 1396 226L1444 242V338H1396C1348 338 1252 338 1156 338C1060 338 964 338 868 338C772 338 676 338 580 338C484 338 388 338 292 338C196 338 100 338 52 338H4V50Z" stroke="black" shape-rendering="crispEdges"/>
</g>
<g filter="url(#filter1_d_6_59)">
<path fill-rule="evenodd" clip-rule="evenodd" d="M4 88.1726L52 83.5461C100 78.9197 196 69.6668 292 92.799C388 115.931 484 171.448 580 208.46C676 245.471 772 263.977 868 254.724C964 245.471 1060 208.46 1156 203.833C1252 199.207 1348 226.966 1396 240.845L1444 254.724V338H1396C1348 338 1252 338 1156 338C1060 338 964 338 868 338C772 338 676 338 580 338C484 338 388 338 292 338C196 338 100 338 52 338H4V88.1726Z" fill="url(#paint1_linear_6_59)" fill-opacity="0.12" shape-rendering="crispEdges"/>
<path fill-rule="evenodd" clip-rule="evenodd" d="M4 88.1726L52 83.5461C100 78.9197 196 69.6668 292 92.799C388 115.931 484 171.448 580 208.46C676 245.471 772 263.977 868 254.724C964 245.471 1060 208.46 1156 203.833C1252 199.207 1348 226.966 1396 240.845L1444 254.724V338H1396C1348 338 1252 338 1156 338C1060 338 964 338 868 338C772 338 676 338 580 338C484 338 388 338 292 338C196 338 100 338 52 338H4V88.1726Z" stroke="black" shape-rendering="crispEdges"/>
</g>
<g filter="url(#filter2_d_6_59)">
<path fill-rule="evenodd" clip-rule="evenodd" d="M4 13.52L52 7.51111C100 1.50222 196 -10.5156 292 19.5289C388 49.5733 484 121.68 580 169.751C676 217.822 772 241.858 868 229.84C964 217.822 1060 169.751 1156 163.742C1252 157.733 1348 193.787 1396 211.813L1444 229.84V338H1396C1348 338 1252 338 1156 338C1060 338 964 338 868 338C772 338 676 338 580 338C484 338 388 338 292 338C196 338 100 338 52 338H4V13.52Z" fill="url(#paint2_linear_6_59)" fill-opacity="0.12" shape-rendering="crispEdges"/>
<path fill-rule="evenodd" clip-rule="evenodd" d="M4 13.52L52 7.51111C100 1.50222 196 -10.5156 292 19.5289C388 49.5733 484 121.68 580 169.751C676 217.822 772 241.858 868 229.84C964 217.822 1060 169.751 1156 163.742C1252 157.733 1348 193.787 1396 211.813L1444 229.84V338H1396C1348 338 1252 338 1156 338C1060 338 964 338 868 338C772 338 676 338 580 338C484 338 388 338 292 338C196 338 100 338 52 338H4V13.52Z" stroke="black" shape-rendering="crispEdges"/>
</g>
<defs>
<filter id="filter0_d_6_59" x="0" y="38" width="1448" height="308" filterUnits="userSpaceOnUse" color-interpolation-filters="sRGB">
<feFlood flood-opacity="0" result="BackgroundImageFix"/>
<feColorMatrix in="SourceAlpha" type="matrix" values="0 0 0 0 0 0 0 0 0 0 0 0 0 0 0 0 0 0 127 0" result="hardAlpha"/>
<feOffset dy="4"/>
<feGaussianBlur stdDeviation="2"/>
<feComposite in2="hardAlpha" operator="out"/>
<feColorMatrix type="matrix" values="0 0 0 0 0 0 0 0 0 0 0 0 0 0 0 0 0 0 0.5 0"/>
<feBlend mode="normal" in2="BackgroundImageFix" result="effect1_dropShadow_6_59"/>
<feBlend mode="normal" in="SourceGraphic" in2="effect1_dropShadow_6_59" result="shape"/>
</filter>
<filter id="filter1_d_6_59" x="0" y="77.7631" width="1448" height="268.237" filterUnits="userSpaceOnUse" color-interpolation-filters="sRGB">
<feFlood flood-opacity="0" result="BackgroundImageFix"/>
<feColorMatrix in="SourceAlpha" type="matrix" values="0 0 0 0 0 0 0 0 0 0 0 0 0 0 0 0 0 0 127 0" result="hardAlpha"/>
<feOffset dy="4"/>
<feGaussianBlur stdDeviation="2"/>
<feComposite in2="hardAlpha" operator="out"/>
<feColorMatrix type="matrix" values="0 0 0 0 0 0 0 0 0 0 0 0 0 0 0 0 0 0 0.5 0"/>
<feBlend mode="normal" in2="BackgroundImageFix" result="effect1_dropShadow_6_59"/>
<feBlend mode="normal" in="SourceGraphic" in2="effect1_dropShadow_6_59" result="shape"/>
</filter>
<filter id="filter2_d_6_59" x="0" y="0" width="1448" height="346" filterUnits="userSpaceOnUse" color-interpolation-filters="sRGB">
<feFlood flood-opacity="0" result="BackgroundImageFix"/>
<feColorMatrix in="SourceAlpha" type="matrix" values="0 0 0 0 0 0 0 0 0 0 0 0 0 0 0 0 0 0 127 0" result="hardAlpha"/>
<feOffset dy="4"/>
<feGaussianBlur stdDeviation="2"/>
<feComposite in2="hardAlpha" operator="out"/>
<feColorMatrix type="matrix" values="0 0 0 0 0 0 0 0 0 0 0 0 0 0 0 0 0 0 0.5 0"/>
<feBlend mode="normal" in2="BackgroundImageFix" result="effect1_dropShadow_6_59"/>
<feBlend mode="normal" in="SourceGraphic" in2="effect1_dropShadow_6_59" result="shape"/>
</filter>
<linearGradient id="paint0_linear_6_59" x1="290.5" y1="134.746" x2="1369.61" y2="331.13" gradientUnits="userSpaceOnUse">
<stop stop-color="#0099FF"/>
<stop offset="1" stop-color="#0099FF" stop-opacity="0.8"/>
</linearGradient>
<linearGradient id="paint1_linear_6_59" x1="290.5" y1="161.686" x2="1358.35" y2="385.715" gradientUnits="userSpaceOnUse">
<stop stop-color="#0099FF"/>
<stop offset="1" stop-color="#0099FF" stop-opacity="0.8"/>
</linearGradient>
<linearGradient id="paint2_linear_6_59" x1="290.5" y1="109" x2="1377" y2="284.5" gradientUnits="userSpaceOnUse">
<stop stop-color="#0099FF"/>
<stop offset="1" stop-color="#0099FF" stop-opacity="0.8"/>
</linearGradient>
</defs>
</svg>
